<?xml version="1.0" encoding="utf-8"?>
<!-- Generator: Adobe Illustrator 21.1.0, SVG Export Plug-In . SVG Version: 6.00 Build 0)  -->
<svg version="1.1" id="Calque_1" xmlns="http://www.w3.org/2000/svg" xmlns:xlink="http://www.w3.org/1999/xlink" x="0px" y="0px"
	 viewBox="0 0 72.3 49.8" style="enable-background:new 0 0 72.3 49.8;" xml:space="preserve">
<style type="text/css">
	.st0{fill:#FFFFFF;}
</style>
<g>
	<g>
		<path class="st0" d="M0.6,44.2h1.7c0.3,0,0.5,0,0.7,0.1c0.2,0.1,0.4,0.2,0.5,0.3c0.1,0.1,0.3,0.3,0.3,0.4C4,45.3,4,45.5,4,45.7v0
			c0,0.2,0,0.5-0.1,0.6s-0.2,0.3-0.4,0.5c-0.2,0.1-0.3,0.2-0.6,0.3c-0.2,0.1-0.4,0.1-0.7,0.1H1.1v1.6H0.6V44.2z M2.3,46.7
			c0.2,0,0.4,0,0.5-0.1c0.2,0,0.3-0.1,0.4-0.2c0.1-0.1,0.2-0.2,0.3-0.3c0.1-0.1,0.1-0.3,0.1-0.4v0c0-0.3-0.1-0.6-0.3-0.7
			c-0.2-0.2-0.5-0.2-0.9-0.2H1.1v2H2.3z"/>
		<path class="st0" d="M6.2,44.2h0.5v2h2.6v-2h0.5v4.5H9.4v-2H6.8v2H6.2V44.2z"/>
		<path class="st0" d="M14.5,48.8c-0.3,0-0.7-0.1-0.9-0.2c-0.3-0.1-0.5-0.3-0.7-0.5s-0.4-0.5-0.5-0.7s-0.2-0.6-0.2-0.9v0
			c0-0.3,0.1-0.6,0.2-0.9c0.1-0.3,0.3-0.5,0.5-0.7s0.4-0.4,0.7-0.5c0.3-0.1,0.6-0.2,0.9-0.2c0.3,0,0.7,0.1,0.9,0.2
			c0.3,0.1,0.5,0.3,0.7,0.5s0.4,0.5,0.5,0.7c0.1,0.3,0.2,0.6,0.2,0.9c0,0,0,0,0,0c0,0.3-0.1,0.6-0.2,0.9c-0.1,0.3-0.3,0.5-0.5,0.7
			s-0.4,0.4-0.7,0.5S14.9,48.8,14.5,48.8z M14.5,48.4c0.3,0,0.5,0,0.7-0.1c0.2-0.1,0.4-0.2,0.6-0.4c0.2-0.2,0.3-0.4,0.4-0.6
			c0.1-0.2,0.1-0.5,0.1-0.7v0c0-0.3,0-0.5-0.1-0.7c-0.1-0.2-0.2-0.4-0.4-0.6s-0.3-0.3-0.6-0.4c-0.2-0.1-0.5-0.1-0.7-0.1
			c-0.3,0-0.5,0-0.7,0.1c-0.2,0.1-0.4,0.2-0.6,0.4c-0.2,0.2-0.3,0.4-0.4,0.6s-0.1,0.5-0.1,0.7v0c0,0.3,0,0.5,0.1,0.7
			c0.1,0.2,0.2,0.4,0.4,0.6s0.3,0.3,0.6,0.4C14.1,48.3,14.3,48.4,14.5,48.4z"/>
		<path class="st0" d="M20.4,44.7h-1.5v-0.5h3.5v0.5h-1.5v4h-0.5V44.7z"/>
		<path class="st0" d="M26.8,48.8c-0.3,0-0.7-0.1-0.9-0.2c-0.3-0.1-0.5-0.3-0.7-0.5s-0.4-0.5-0.5-0.7c-0.1-0.3-0.2-0.6-0.2-0.9v0
			c0-0.3,0.1-0.6,0.2-0.9c0.1-0.3,0.3-0.5,0.5-0.7s0.4-0.4,0.7-0.5s0.6-0.2,0.9-0.2c0.3,0,0.7,0.1,0.9,0.2c0.3,0.1,0.5,0.3,0.7,0.5
			s0.4,0.5,0.5,0.7c0.1,0.3,0.2,0.6,0.2,0.9c0,0,0,0,0,0c0,0.3-0.1,0.6-0.2,0.9c-0.1,0.3-0.3,0.5-0.5,0.7s-0.4,0.4-0.7,0.5
			C27.4,48.8,27.1,48.8,26.8,48.8z M26.8,48.4c0.3,0,0.5,0,0.7-0.1c0.2-0.1,0.4-0.2,0.6-0.4c0.2-0.2,0.3-0.4,0.4-0.6
			c0.1-0.2,0.1-0.5,0.1-0.7v0c0-0.3,0-0.5-0.1-0.7c-0.1-0.2-0.2-0.4-0.4-0.6s-0.3-0.3-0.6-0.4c-0.2-0.1-0.5-0.1-0.7-0.1
			c-0.3,0-0.5,0-0.7,0.1c-0.2,0.1-0.4,0.2-0.6,0.4c-0.2,0.2-0.3,0.4-0.4,0.6C25.1,46,25,46.2,25,46.5v0c0,0.3,0,0.5,0.1,0.7
			c0.1,0.2,0.2,0.4,0.4,0.6s0.3,0.3,0.6,0.4C26.3,48.3,26.5,48.4,26.8,48.4z"/>
		<path class="st0" d="M33.6,48.8c-0.4,0-0.7-0.1-1-0.2c-0.3-0.1-0.5-0.3-0.7-0.5c-0.2-0.2-0.4-0.5-0.5-0.7
			c-0.1-0.3-0.2-0.6-0.2-0.9v0c0-0.3,0.1-0.6,0.2-0.9c0.1-0.3,0.3-0.5,0.5-0.7c0.2-0.2,0.4-0.4,0.7-0.5s0.6-0.2,0.9-0.2
			c0.2,0,0.4,0,0.5,0c0.2,0,0.3,0.1,0.4,0.1c0.1,0.1,0.3,0.1,0.4,0.2c0.1,0.1,0.2,0.2,0.3,0.3l-0.3,0.4c-0.1-0.1-0.2-0.1-0.3-0.2
			s-0.2-0.1-0.3-0.2c-0.1,0-0.2-0.1-0.4-0.1c-0.1,0-0.3,0-0.4,0c-0.2,0-0.5,0-0.7,0.1c-0.2,0.1-0.4,0.2-0.5,0.4s-0.3,0.4-0.4,0.6
			c-0.1,0.2-0.1,0.5-0.1,0.7v0c0,0.3,0,0.5,0.1,0.7c0.1,0.2,0.2,0.4,0.4,0.6c0.2,0.2,0.3,0.3,0.6,0.4s0.5,0.1,0.7,0.1
			c0.3,0,0.5,0,0.7-0.1c0.2-0.1,0.4-0.2,0.6-0.3v-1.1h-1.4v-0.5h1.9v1.8c-0.2,0.2-0.5,0.4-0.8,0.5S33.9,48.8,33.6,48.8z"/>
		<path class="st0" d="M37.8,44.2h1.9c0.3,0,0.5,0,0.7,0.1c0.2,0.1,0.4,0.2,0.5,0.3c0.1,0.1,0.2,0.2,0.3,0.4
			c0.1,0.2,0.1,0.3,0.1,0.5v0c0,0.2,0,0.4-0.1,0.5c-0.1,0.1-0.1,0.3-0.3,0.4c-0.1,0.1-0.2,0.2-0.4,0.3c-0.2,0.1-0.3,0.1-0.5,0.2
			l1.4,1.8h-0.6L39.6,47h0h-1.3v1.8h-0.5V44.2z M39.7,46.5c0.2,0,0.3,0,0.5-0.1c0.1,0,0.3-0.1,0.4-0.2s0.2-0.2,0.2-0.3
			c0.1-0.1,0.1-0.2,0.1-0.4v0c0-0.3-0.1-0.5-0.3-0.7c-0.2-0.2-0.5-0.2-0.9-0.2h-1.4v1.8H39.7z"/>
		<path class="st0" d="M45.4,44.2h0.5l2.1,4.5h-0.5l-0.5-1.2h-2.5l-0.5,1.2h-0.5L45.4,44.2z M46.7,47.1l-1-2.3l-1,2.3H46.7z"/>
		<path class="st0" d="M50.2,44.2h1.7c0.3,0,0.5,0,0.7,0.1c0.2,0.1,0.4,0.2,0.5,0.3c0.1,0.1,0.3,0.3,0.3,0.4
			c0.1,0.2,0.1,0.4,0.1,0.6v0c0,0.2,0,0.5-0.1,0.6s-0.2,0.3-0.4,0.5c-0.2,0.1-0.3,0.2-0.6,0.3c-0.2,0.1-0.4,0.1-0.7,0.1h-1.1v1.6
			h-0.5V44.2z M51.8,46.7c0.2,0,0.4,0,0.5-0.1c0.2,0,0.3-0.1,0.4-0.2c0.1-0.1,0.2-0.2,0.3-0.3C53,46,53,45.9,53,45.7v0
			c0-0.3-0.1-0.6-0.3-0.7c-0.2-0.2-0.5-0.2-0.9-0.2h-1.1v2H51.8z"/>
		<path class="st0" d="M55.8,44.2h0.5v2h2.6v-2h0.5v4.5h-0.5v-2h-2.6v2h-0.5V44.2z"/>
		<path class="st0" d="M62,44.2h3.3v0.5h-2.8v1.6h2.5v0.5h-2.5v1.6h2.8v0.5H62V44.2z"/>
		<path class="st0" d="M69.1,48.8c-0.4,0-0.7-0.1-1-0.2c-0.3-0.1-0.6-0.3-0.9-0.5l0.3-0.4c0.2,0.2,0.5,0.4,0.7,0.5
			c0.2,0.1,0.5,0.2,0.8,0.2c0.3,0,0.5-0.1,0.7-0.2c0.2-0.1,0.3-0.3,0.3-0.6v0c0-0.1,0-0.2-0.1-0.3s-0.1-0.2-0.2-0.2
			c-0.1-0.1-0.2-0.1-0.4-0.2c-0.2-0.1-0.3-0.1-0.6-0.2c-0.3-0.1-0.5-0.1-0.7-0.2c-0.2-0.1-0.4-0.2-0.5-0.3s-0.2-0.2-0.3-0.4
			s-0.1-0.3-0.1-0.5v0c0-0.2,0-0.3,0.1-0.5s0.2-0.3,0.3-0.4c0.1-0.1,0.3-0.2,0.5-0.3c0.2-0.1,0.4-0.1,0.6-0.1c0.3,0,0.6,0,0.9,0.1
			c0.2,0.1,0.5,0.2,0.7,0.4l-0.3,0.4c-0.2-0.2-0.4-0.3-0.6-0.4c-0.2-0.1-0.4-0.1-0.7-0.1c-0.3,0-0.5,0.1-0.7,0.2S68,45.2,68,45.4v0
			c0,0.1,0,0.2,0.1,0.3c0,0.1,0.1,0.2,0.2,0.2c0.1,0.1,0.2,0.1,0.4,0.2c0.2,0.1,0.4,0.1,0.6,0.2c0.5,0.1,0.9,0.3,1.1,0.5
			c0.2,0.2,0.4,0.5,0.4,0.8v0c0,0.2,0,0.4-0.1,0.5c-0.1,0.2-0.2,0.3-0.3,0.4c-0.1,0.1-0.3,0.2-0.5,0.3
			C69.6,48.8,69.3,48.8,69.1,48.8z"/>
	</g>
	<path class="st0" d="M60.4,26.4c2.5-1.1,4.6-2.6,6.1-4.7s2.3-4.6,2.3-7.8v-0.1c0-4-1.2-7.1-3.6-9.4C63.8,3,62,1.9,59.9,1.2
		C57.7,0.4,55.1,0,51.9,0h-8H32.7H32l-9.7,15.7L12.7,0H0.8v40.6h11.1V17.4l10.3,15.8h0.2l10.3-15.9v23.3h0h11.1H44V28.3h4.8h0.1
		l8.2,12.3h13L60.4,26.4z M57.4,14.7c0,1.5-0.5,2.6-1.6,3.5s-2.5,1.3-4.5,1.3H44V9.7h7.4c1.9,0,3.4,0.4,4.5,1.2
		c1.1,0.8,1.6,2,1.6,3.6V14.7z"/>
</g>
</svg>
